<svg width="32" height="44" viewBox="0 0 32 44" fill="none" xmlns="http://www.w3.org/2000/svg">
<path fill-rule="evenodd" clip-rule="evenodd" d="M24.0839 18.2942C25.4311 14.6335 26.4825 11.6114 27.2367 9.2279C27.991 6.84441 28.3682 5.38111 28.3682 4.83814C28.3682 4.25483 28.2425 3.8023 27.991 3.4804C27.7392 3.15896 27.3923 2.99778 26.9501 2.99778C26.387 2.99778 25.8136 3.46543 25.2305 4.40058C24.6467 5.33589 24.0035 6.83983 23.2995 8.91119L20.2824 17.6304L24.0839 18.2942ZM20.0711 26.4097C19.2062 26.3695 18.3863 26.2791 17.6123 26.1382C16.8379 25.9978 16.0987 25.7963 15.3947 25.5349C15.7162 26.1788 16.0028 26.822 16.2546 27.4657C16.5061 28.1098 16.7118 28.7434 16.8732 29.3664C17.3558 28.7631 17.8638 28.2154 18.3968 27.7222C18.9294 27.2293 19.4875 26.7919 20.0711 26.4097ZM16.6618 17.268L13.4034 7.85473C12.5587 5.46116 11.9049 3.89779 11.4425 3.16323C10.9793 2.42898 10.4769 2.06201 9.9338 2.06201C9.51152 2.06201 9.16915 2.22335 8.90805 2.54464C8.64649 2.86654 8.51587 3.2989 8.51587 3.84203C8.51587 4.76725 8.86741 6.37646 9.57187 8.66934C10.2757 10.9622 11.3317 13.9692 12.7397 17.6903C12.8604 17.469 13.0309 17.3132 13.2526 17.2226C13.4738 17.1322 13.7755 17.0869 14.1576 17.0869C14.2783 17.0869 14.5197 17.0973 14.8818 17.117C15.2437 17.1372 15.8368 17.1879 16.6618 17.268ZM13.705 31.8407C14.0469 31.8407 14.3583 31.6852 14.6403 31.3731C14.9219 31.0613 15.0627 30.7244 15.0627 30.3623C15.0627 29.9805 14.786 29.0906 14.233 27.6922C13.6795 26.2943 12.9909 24.9216 12.1664 23.5739C11.5629 22.5682 10.9695 21.8091 10.3863 21.296C9.80258 20.7832 9.24983 20.5266 8.72687 20.5266C8.30444 20.5266 7.83679 20.7937 7.32391 21.3263C6.81104 21.8593 6.55452 22.3571 6.55452 22.8197C6.55452 23.3025 6.806 24.0266 7.30879 24.992C7.81128 25.9574 8.48548 26.9833 9.33034 28.0694C10.2154 29.2565 11.05 30.1813 11.8345 30.8451C12.6189 31.5088 13.2419 31.8407 13.705 31.8407ZM4.65379 31.1167C4.93536 31.4591 5.3277 31.9615 5.83049 32.6252C7.15798 34.4556 8.38448 35.3708 9.51136 35.3708C9.893 35.3708 10.2354 35.2501 10.5371 35.0087C10.8387 34.7673 10.9896 34.516 10.9896 34.2544C10.9896 33.9529 10.7884 33.4504 10.3863 32.7459C9.98345 32.0419 9.43085 31.2479 8.72685 30.3624C7.92232 29.3367 7.25316 28.5875 6.72057 28.1148C6.18753 27.6425 5.75975 27.4057 5.43831 27.4057C4.73385 27.4057 4.08516 27.7829 3.49223 28.5372C2.89899 29.2915 2.60229 30.1814 2.60229 31.2071C2.60229 32.0323 2.80839 32.9525 3.22074 33.9678C3.63263 34.9835 4.23136 36.0044 5.01588 37.0301C6.20266 38.6191 7.67543 39.8406 9.43589 40.6955C11.1957 41.5511 13.1418 41.9777 15.2738 41.9777C19.1961 41.9777 22.4796 40.5145 25.1245 37.5884C27.7691 34.6617 29.092 30.9961 29.092 26.5911C29.092 25.2439 28.991 24.1729 28.7902 23.378C28.5892 22.5834 28.2574 22.0052 27.7946 21.6431C26.9696 20.9597 25.366 20.3459 22.9824 19.8027C20.5991 19.2598 18.1098 18.9881 15.5152 18.9881C14.7912 18.9881 14.2782 19.1088 13.9766 19.3502C13.6749 19.5916 13.5239 20.0039 13.5239 20.5871C13.5239 21.9554 14.2883 22.9455 15.817 23.5589C17.3452 24.1729 19.8191 24.4793 23.2389 24.4793H24.4759C24.7575 24.4793 24.9838 24.5848 25.1547 24.796C25.3252 25.0071 25.4413 25.324 25.5017 25.7464C25.1593 26.0681 24.4558 26.4357 23.3897 26.8476C22.3233 27.2598 21.5087 27.6671 20.946 28.0695C19.7391 28.9549 18.7686 30.0055 18.0345 31.2223C17.2998 32.4396 16.9333 33.5908 16.9333 34.6769C16.9333 35.3407 17.0887 36.1402 17.401 37.0753C17.7126 38.0108 17.8685 38.5889 17.8685 38.8103V39.0214L17.8081 39.2929C16.9228 39.2326 16.2243 38.7151 15.7114 37.7391C15.1985 36.7637 14.942 35.4614 14.942 33.832V33.5605C14.7807 33.7014 14.6251 33.8019 14.4743 33.8623C14.3236 33.9226 14.1575 33.9529 13.9766 33.9529C13.7954 33.9529 13.6244 33.9377 13.4636 33.9075C13.3022 33.8774 13.1214 33.832 12.9206 33.7717C12.9809 33.9933 13.0262 34.2092 13.0563 34.4204C13.0865 34.6316 13.1015 34.7976 13.1015 34.9183C13.1015 35.6624 12.81 36.3015 12.2267 36.8341C11.6429 37.3671 10.949 37.6336 10.1448 37.6336C8.87779 37.6336 7.59049 37.0151 6.28302 35.7781C4.97524 34.541 4.32196 33.3297 4.32196 32.1426C4.32196 31.9214 4.34717 31.7252 4.39743 31.5541C4.44724 31.3836 4.5331 31.2374 4.65379 31.1167ZM26.2563 18.8077C28.0666 19.1501 29.3438 19.9139 30.088 21.1007C30.8317 22.2878 31.2043 24.1584 31.2043 26.7124C31.2043 31.7811 29.6807 35.9295 26.6334 39.1578C23.5862 42.3857 19.6891 43.9998 14.9423 43.9998C13.0717 43.9998 11.2566 43.6628 9.49658 42.989C7.73612 42.3153 6.22301 41.3749 4.95587 40.1682C3.50769 38.841 2.42144 37.438 1.69743 35.9597C0.973259 34.4813 0.611328 32.9682 0.611328 31.419C0.611328 29.6893 0.983495 28.3522 1.72752 27.4063C2.4714 26.4609 3.64794 25.8177 5.25761 25.4755C4.95587 24.7714 4.73419 24.1781 4.59379 23.6953C4.45308 23.2126 4.38265 22.8406 4.38265 22.5792C4.38265 21.6739 4.86023 20.749 5.8157 19.8033C6.77072 18.8579 7.67119 18.3853 8.51605 18.3853C8.87813 18.3853 9.25977 18.4506 9.66249 18.5814C10.0648 18.7127 10.5269 18.9284 11.0503 19.2301C9.50116 14.8452 8.37519 11.4612 7.67119 9.07772C6.96673 6.69424 6.61534 5.04989 6.61534 4.14483C6.61534 2.89786 6.93663 1.90756 7.58074 1.173C8.2244 0.43875 9.09936 0.0717773 10.2055 0.0717773C12.0958 0.0717773 14.4898 4.29563 17.3862 12.7435C17.8887 14.1917 18.2712 15.3078 18.5326 16.0924C18.7538 15.4693 19.0652 14.5838 19.4679 13.4374C22.3643 5.07006 24.8581 0.886388 26.9502 0.886388C27.9761 0.886388 28.7953 1.23335 29.4092 1.92726C30.0226 2.62118 30.3294 3.5519 30.3294 4.71806C30.3294 5.6034 29.9925 7.22224 29.3186 9.57547C28.6444 11.9289 27.624 15.0061 26.2563 18.8077Z" fill="#050C26"/>
</svg>
