<?xml version="1.0" encoding="utf-8"?>
<!-- Generator: Adobe Illustrator 18.1.0, SVG Export Plug-In . SVG Version: 6.00 Build 0)  -->
<svg version="1.1" id="Layer_1" xmlns="http://www.w3.org/2000/svg" xmlns:xlink="http://www.w3.org/1999/xlink" x="0px" y="0px"
	 viewBox="0 0 654.8 498.9" enable-background="new 0 0 654.8 498.9" xml:space="preserve">
<g>
	<rect x="0" y="0" fill="#F7323F" width="654.8" height="498.9"/>
	<g>
		<g>
			<path fill="#FFFFFF" d="M192.5,96.6c0-2.7-1.1-5.4-4.7-6.7c-3-1.1-5.7-1.4-8.7-1.9c-4.3-0.7-3.5-4.9,0.4-4.9
				c2.5,0,14.4,0.9,28.6,0.9c8.2,0,20-0.4,25.7-0.7c3.6-0.2,4,3.6,1.5,4.3c-2.5,0.7-14.3,3.6-35.5,22.9c-21.8,20.1-50,49.8-50,49.8
				s63.2,75.4,74.3,84.4c11.4,9.3,19.3,10,27.9,10.7c2.2,0.1,2.9,4.3,0,4.3h-49.4c0,0-61.2-74-71.2-80.8c-1.8-1.1-6.1-2.5-6.5,2.5
				c-0.4,4.7-0.7,43.9,0.4,52.5c1.1,8.6,4.7,21.1,25,21.1c2.5,0,4,4.8,0.4,4.7c-12.1-0.6-21.1-0.6-36-0.6c-12.9,0-30.9,0.6-33.4,0.6
				c-4.3,0-4.3-4-0.3-4.3c5.7-0.4,19.3-1.1,20.1-22.9c0.9-22.6,0.4-117.5,0-127.9c-0.1-7.2-6.2-16.8-21.9-16.8
				c-2.5,0-2.2-4.3,0.7-4.3h67.3c2.5,0,4,4.2-0.3,4.6c-4.3,0.3-20.7,0.8-21.1,22.6c-0.6,21.9-0.6,55.7-0.6,57.2
				c0,1.8,0.7,3.6,3.2,1.8c7.8-5.3,30.8-27.8,48-47.1c6.8-7.6,11.4-14.3,14.7-20.5C191.8,100.7,192.5,98.8,192.5,96.6z M277.2,157.1
				V96.4c0-7.5,5.4-9.7,11.1-10c2.2,0,2.5-2.9-0.4-2.9h-35.8c-2.5,0-2.9,2.8-0.3,2.9c5.4,0.6,11.8,3.2,11.8,10v60.7
				c0,6.8-2.5,11.1-10.4,11.1c-3.1,0-2.4,2.6,0,2.6h35.1c1.8,0,2.3-2.6-0.7-2.6C280.1,168.2,277.2,163.2,277.2,157.1z M323.4,209.6
				c0.7,0,1.2-0.4,1.4-1.1l5.7-18.3c0.4-1.1-0.1-1.8-1.1-1.8c-0.4,0-0.9,0.1-1.2,0.5c-1.1,1.1-2.4,2.2-3.4,2.2
				c-0.6,0-1.1-0.4-1.7-0.9c-5.1-6.3-13.4-7.3-17.3-7.3c-18.2,0-34,11.9-43.3,26.6c-5.6,8.7-8.5,18.3-8.5,27.7
				c0,15,10.4,23.5,24,23.5c6.1,0,10.7-0.7,19-4.2c1.8-0.7,3.8-1.6,5-1.6c2,0,2.2,3,2.4,5.7c0,1.1,0.7,1.4,1.4,1.4
				c0.5,0,1.1-0.2,1.4-1.1l7.6-21.9c0.6-1.8-0.1-2.5-0.8-2.5c-1.1,0-1.7,0.5-2.5,1.9c-3.5,5.4-5.9,8.8-17.9,14.7
				c-5,2.4-10.9,3.8-15.5,3.8c-10.1,0-14.1-7.7-14.1-17.5c0-12.9,6.1-26.4,15.4-37.6c6-7.4,15-15.7,25.7-15.7
				c10.1,0,17.7,7.5,16.6,21.5C321.6,209,322.4,209.6,323.4,209.6z M300.2,83.5c-2.5,0-2.5,2.5-1.1,2.9c2.7,0.6,8.5,1.1,8.5,8.6
				c0.1,17.8,0.1,41-0.6,60c-0.1,6.8-2.2,12.5-8,13.2c-2.2,0.1-2.2,2.6-0.7,2.6h25.8c1.4,0,1.9-2.3,0.1-2.6
				c-3.9-0.7-10.4-0.7-10.9-13.2c-0.6-12.2-0.9-58.2-0.9-58.2l64.7,71.9h5.4c0,0,0-67.3,0.4-72.4c0.4-6,2.4-9.2,8.8-9.7
				c3.2-0.2,2.6-3.1,0.5-3.1h-26.3c-3.1,0-2.4,2.9-0.9,2.9c2.9,0.3,11.8,1.4,12.2,10c0.3,12.5,0.9,51.5,0.9,51.5l-57.5-64.4H300.2z
				 M357.7,202.4c11.4,0,13.6,10,13.6,19.3c0,14.8-13.6,38.4-30.1,38.4c-10.4,0-14.3-8.4-14.3-17C327,222.6,341.7,202.4,357.7,202.4
				z M360.1,205.8c-11.3,0-27.5,26.8-27.5,43.2c0,4.3,1.9,7.5,6.4,7.5c11.1,0,27.7-27.5,27.7-41.9
				C366.7,210.3,365.5,205.8,360.1,205.8z M402.6,187.9c0,0.3-0.1,1.1-0.5,1.8c-9.7,21-19.2,41.9-28.5,62.9
				c-0.5,1.1-1.4,3.2-1.4,4.6c0,1.8,1.3,3.3,3.2,3.3c0.9,0,2.3-0.3,3-0.7c5.2-2.2,10.7-7.9,13.9-12.8c0.7-1.1-0.6-2-1.4-1.3
				c-1.3,1.2-5,6.2-9,8.4c-0.7,0.3-1.4,0.3-0.9-1.1l29.8-66.2c0.5-1.2,0.7-1.9,0.7-2.6c0-0.8-0.6-1.2-1.4-1.2
				c-1.4,0-3.1,0.4-5.3,0.6c-1.8,0.1-4.9,0.3-7.6,0.6c-0.7,0-1.1,0.7-1.1,1.2c0,0.7,0.6,1.1,1.3,1.1c1.4,0,2.9,0,4.4,0.3
				C402.5,187,402.6,187.4,402.6,187.9z M481.6,142.2c0-7.3,5.4-8,10-8.3c1.8-0.2,2.2-3.1-0.4-3.1h-36.1c-2.5,0-2.5,3.2,0,3.5
				c7.2,0.5,12.9,1.8,12.9,8.7v13c0,2.9-1.4,4.9-3,6.1c-6.3,5.3-14.3,5.6-19,5.6c-22.9,0-33.2-19.8-33.2-39.5
				c0-16,8.1-41.2,34.6-41.2c23.7,0,32.3,15.4,35.2,21.2c1,1.8,3.2,1.4,3.2,0v-19c0-1.8-2.6-2.2-3.2,0c-0.5,2.1-1.9,3.6-3.7,3.6
				c-1.4,0-3.1-1.1-3.8-1.6c-7.2-4.5-13.9-8.1-27.5-8.1c-22,0-49.1,10.9-49.1,44.4c0,33.7,25.4,44,47.6,44
				c21.8,0,33.3-11.1,35.4-12.5V142.2z M429.2,187.9c0,0.3-0.1,1.1-0.5,1.8c-9.6,21-19.2,41.9-28.5,62.9c-0.5,1.1-1.4,3.2-1.4,4.6
				c0,1.8,1.3,3.3,3.2,3.3c0.9,0,2.3-0.3,3-0.7c5.3-2.2,10.7-7.9,14-12.8c0.7-1.1-0.6-2-1.4-1.3c-1.3,1.2-5,6.2-8.9,8.4
				c-0.7,0.3-1.4,0.3-1-1.1l29.8-66.2c0.5-1.2,0.7-1.9,0.7-2.6c0-0.8-0.6-1.2-1.4-1.2c-1.4,0-3.1,0.4-5.3,0.6
				c-1.8,0.1-4.9,0.3-7.6,0.6c-0.7,0-1.1,0.7-1.1,1.2c0,0.7,0.6,1.1,1.3,1.1c1.4,0,2.9,0,4.4,0.3C429.1,187,429.2,187.4,429.2,187.9
				z M464.1,247.5c-5,6.6-12.9,12.7-22.7,12.7c-7.5,0-12.1-5.4-12.1-12.3c0-21.4,23.6-43.9,39.4-43.9c5.4,0,9.3,2,9.3,7.8
				c0,8.3-7.3,12.9-20.4,16.8c-3.7,1.1-11.8,2.9-15.8,3.7c-1.8,2.9-4,8.6-4,13.1c0,6.1,3,9.7,8.6,9.7c6.5,0,12.5-5,15.9-8.9
				C463.3,245.1,465,246.5,464.1,247.5z M456.9,225.4c7.4-2.4,14.2-6.3,14.2-12.9c0-3.4-1.7-4.9-5-4.9c-4.2,0-8.2,3.1-10.7,5.6
				c-4.2,4-8.2,8.9-11.7,15.2C446.4,228.2,451.9,226.9,456.9,225.4z M530.6,209c1.4,0,2.7-0.7,2.7-3.2c0-2.2-2-2.9-3.9-2.9
				c-2.2,0-4.9,0.6-7.8,2.5c-0.7,0.6-2.5,1.4-3.6,0.7c-2.2-1.5-4.3-2.6-9.6-2.6c-5.4,0-13.2,3.2-18.3,10c-3.6,5-4.3,8.6-4.3,12.1
				c0,3.6,1.4,6.2,2.5,7.6c0.2,0.4,0.4,0.6,0.4,1c0,0.8-1.1,1.4-2.9,1.9c-3.2,1.1-8.6,4.2-8.6,9.7c0,3.6,2.9,7,6.1,9.2
				c0,0-6.6,1.8-11.8,4.7c-4.1,2.2-8.6,5.7-8.6,10.7c0,5.7,4.9,15,25.1,15c11.8,0,19.2-4.3,22.1-7.5c2.1-2.5,2.5-5.4,2.5-7.2
				c0-6.4-7.1-12.5-15-16.8c-5-2.9-12.4-6.3-12.4-11.5c0-1.3,0.4-2.7,1.8-3.6c1-0.7,2.5-1.1,4.2-1.1c2.2,0,5.1,0.7,7.2,0.7
				c6.4,0,15.2-2.2,20.5-13.6c1.4-3.2,2-6.4,2-9.2c0-3.6-0.6-4.4-0.6-6.1c0-1.4,1.4-2.3,4.2-2.3C528.4,207.5,528.4,209,530.6,209z
				 M489,282c-13.2,0-17.2-7.6-17.2-11.4c0-3.6,1.4-5.9,5-8.4c2.5-1.8,6.2-3.6,9.1-4.7c3.2,1.4,8.1,4.3,9.7,5.7
				c7.1,5,8.6,7.9,8.6,10.4C504.1,280.5,494,282,489,282z M515.1,211.1c0,3.5-1.3,8.1-4.3,13.1c-5.6,9.1-10,10.9-13.8,10.9
				c-3.2,0-4.7-2.6-4.7-6.4c0-3.4,1.4-7.6,3.9-11.6c3.8-6.1,9.2-11.1,14-11.1C513.4,206,515.1,207.6,515.1,211.1z M500.8,97.1
				c-3.1,0-6.7-1.9-6.7-6.9c0-5.4,4.3-7,7.5-7c4.5,0,8.3,3.2,8.3,8.8c0,6.2-4.7,13.6-12.9,13.6c-0.9,0-1.2-0.6-1.2-1.1
				c0-0.6,0.4-0.9,0.9-1.1c5.6-1.1,7.8-4.7,7.9-7C504,96.7,502.3,97.1,500.8,97.1z M566.8,101c0.6,0,1.3-0.4,1.1-1.2l-2.3-16
				c-0.2-1.1-0.7-1.4-1.3-1.4c-0.4,0-0.9,0.2-1.2,1c-0.7,1.4-1.8,2.6-3.8,2.6c-3.6,0-6.9-2.6-15.4-2.6c-11.1,0-25.8,4.7-25.8,20.9
				c0,16.1,12.9,21.3,24,25.4c11.7,4.3,21,7.5,21,19.7c0,13.6-9.6,18-18.6,18c-10,0-21.8-4.7-26-20.6c-0.4-1.3-0.8-1.7-1.8-1.7
				c-0.9,0-1.6,0.6-1.6,2v20.4c0,1.2,0.7,1.8,1.4,1.8c0.5,0,1.1-0.4,1.4-0.9c0.8-1.2,1.8-2.3,4-2.3c4.5,0,9.9,5.5,22.9,5.5
				c11.4,0,30.8-3.6,30.8-26.1c0-8.9-3.7-20.4-25.4-26.5c-15.4-4.3-20.3-10.7-20.3-18.6c0-6.8,4-13.4,15.1-13.4
				c5.5,0,14.5,1.6,20.4,13.2C565.9,100.9,566.3,101,566.8,101z M560.6,247.5c-5,6.6-12.9,12.7-22.8,12.7c-7.5,0-11.9-5.4-11.9-12.3
				c0-21.4,23.7-43.9,39.4-43.9c5.4,0,9.3,2,9.3,7.8c0,8.3-7.4,12.9-20.4,16.8c-3.8,1.1-11.8,2.9-15.7,3.7
				c-1.8,2.9-4.2,8.6-4.2,13.1c0,6.1,3.1,9.7,8.6,9.7c6.4,0,12.5-5,16-8.9C559.9,245.1,561.4,246.5,560.6,247.5z M553.4,225.4
				c7.3-2.4,14.1-6.3,14.1-12.9c0-3.4-1.5-4.9-5-4.9c-4,0-8.3,3.1-10.7,5.6c-4,4-8.3,8.9-11.6,15.2
				C542.8,228.2,548.4,226.9,553.4,225.4z"/>
		</g>
		<path fill="#FFFFFF" d="M85.5,289.2h30.8c1.6,0,2,2.5,0.1,2.5c-3,0-9.1,1.4-9.1,7.9V353c0,6.1,3,8.2,16.2,8.2
			c12.8,0,24.8-1.5,30.8-18.5c0.5-1.4,2.7-1.3,2.4,0.8l-3.9,21.1H86.6c-2.3,0-1.8-2.7-0.4-2.7c4.3,0,9.6-2,9.6-9.8V301
			c0-6.6-3.8-9.3-10.3-9.3C83.8,291.6,83.7,289.2,85.5,289.2z M567.3,391.4H86.6v4.5h480.7V391.4z M567.3,406H86.6v10.4h480.7V406z
			 M196.5,365.3c22.1,0,37.9-15.4,37.9-39c0-20.8-15.4-37.6-37.9-37.6c-22,0-37.7,17.2-37.7,37.6
			C158.7,348.4,173.7,365.3,196.5,365.3z M171,326.3c0-19.3,8.9-34.2,25.4-34.2c14.7,0,25.7,14.2,25.7,34.2
			c0,24.7-10,35.5-25.7,35.5C181.1,361.8,171,347,171,326.3z M239.8,289c-1.4,0-1.8,2.5,0.1,2.5c2.1,0,6.7,0.6,6.7,7.2l-0.4,53
			c0,5.7-2,10.5-7.4,10.5c-1.8,0-1.8,2.4-0.4,2.4h22.1c1.4,0,1.4-2.4-0.2-2.4c-3.2,0-8.8-1.4-8.9-10.5l-0.5-53.9
			c0,0,56.5,66.5,56.9,66.8h3.8l0.3-63.7c0-6.3,2.8-9.7,9.6-9.7c1.4,0,1.4-2.1,0-2.1h-24.7c-1.5,0-1.5,2.1,0,2.1
			c2.5,0,10.1,0.5,10.3,8.7l0.6,46.4L259.1,289H239.8z M328.6,288.7c-2.5,0-2,2.9-0.6,2.9c2.9,0,7.6,1.4,7.6,7.2v53.8
			c0,5.7-1.3,9.3-8.1,9.3c-1.7,0-1.7,2.7-0.1,2.7h35.9c15.7,0,41.9-7.5,41.9-38.7c0-31.5-21.5-37.2-42.2-37.2H328.6z M347.3,299.2
			c0-6.8,3.9-7.2,13.2-7.2c16.1,0,32.3,8,32.3,33.5c0,24.8-13.6,35.4-31.6,35.4h-3.8c-4.8,0-10.1-1-10.1-10.4V299.2z M453.1,365.3
			c22.1,0,37.9-15.4,37.9-39c0-20.8-15.4-37.6-37.9-37.6c-21.9,0-37.7,17.2-37.7,37.6C415.4,348.4,430.3,365.3,453.1,365.3z
			 M427.6,326.3c0-19.3,8.9-34.2,25.4-34.2c14.7,0,25.8,14.2,25.8,34.2c0,24.7-10,35.5-25.8,35.5C437.7,361.8,427.6,347,427.6,326.3
			z M495.9,289c-1.4,0-1.8,2.5,0.1,2.5c2.2,0,6.7,0.6,6.7,7.2l-0.4,53c0,5.7-2,10.5-7.4,10.5c-1.8,0-1.8,2.4-0.4,2.4h22.1
			c1.4,0,1.4-2.4-0.2-2.4c-3.2,0-8.8-1.4-8.9-10.5l-0.5-53.9c0,0,56.5,66.5,56.9,66.8h3.8l0.4-63.7c0-6.3,2.7-9.7,9.6-9.7
			c1.4,0,1.4-2.1,0-2.1h-24.7c-1.4,0-1.4,2.1,0,2.1c2.5,0,10.2,0.5,10.3,8.7l0.6,46.4L515.2,289H495.9z"/>
	</g>
</g>
</svg>
